# xmcd CD database file
#
# Track frame offsets:
#	150
#	14592
#	34437
#	50337
#	66937
#	90330
#	106927
#	121442
#	137692
#	154147
#
# Disc length: 2288 seconds
#
# Revision: 0
# Processed by: cddbd v1.5.1PL0 Copyright (c) Steve Scherf et al.
# Submitted via: CDex 1.51
#
DISCID=8408ee0a
DTITLE=ピンク・レディー - ピンクレディアゲイン サスペンス
DYEAR=1984
DGENRE=JPop
TTITLE0=今夜はLONELY
TTITLE1=不思議LOVE
TTITLE2=アフリカに行きたい
TTITLE3=罪な夏
TTITLE4=WITH
TTITLE5=DARLING
TTITLE6=ガラスのエレベーター
TTITLE7=黄昏てモダン・ガール
TTITLE8=SUSPENSORY愛して
TTITLE9=悲しみのシルエット
EXTD=YEAR: 1984
EXTT0=
EXTT1=
EXTT2=
EXTT3=
EXTT4=
EXTT5=
EXTT6=
EXTT7=
EXTT8=
EXTT9=
PLAYORDER=
